<svg width="20" height="20" viewBox="0 0 20 20" fill="none" xmlns="http://www.w3.org/2000/svg">
<path d="M10.0001 11.0625L6.58346 14.4792C6.43068 14.6319 6.25707 14.7049 6.06263 14.6979C5.86818 14.691 5.69457 14.6111 5.54179 14.4583C5.38902 14.3056 5.31263 14.1285 5.31263 13.9271C5.31263 13.7257 5.38902 13.5486 5.54179 13.3958L8.93763 10L5.52096 6.58333C5.36818 6.43055 5.29527 6.25347 5.30221 6.05208C5.30916 5.85069 5.38902 5.67361 5.54179 5.52083C5.69457 5.36805 5.87166 5.29166 6.07304 5.29166C6.27443 5.29166 6.45152 5.36805 6.60429 5.52083L10.0001 8.9375L13.4168 5.52083C13.5696 5.36805 13.7467 5.29166 13.948 5.29166C14.1494 5.29166 14.3265 5.36805 14.4793 5.52083C14.6321 5.67361 14.7085 5.85069 14.7085 6.05208C14.7085 6.25347 14.6321 6.43055 14.4793 6.58333L11.0626 10L14.4793 13.4167C14.6321 13.5694 14.7085 13.7431 14.7085 13.9375C14.7085 14.1319 14.6321 14.3056 14.4793 14.4583C14.3265 14.6111 14.1494 14.6875 13.948 14.6875C13.7467 14.6875 13.5696 14.6111 13.4168 14.4583L10.0001 11.0625Z" fill="#757575"/>
</svg>
