<svg width="24" height="25" viewBox="0 0 24 25" fill="none" xmlns="http://www.w3.org/2000/svg">
<path d="M12 13.7751L7.89998 17.8751C7.71665 18.0584 7.50832 18.1459 7.27498 18.1376C7.04165 18.1293 6.83332 18.0334 6.64998 17.8501C6.46665 17.6668 6.37498 17.4543 6.37498 17.2126C6.37498 16.9709 6.46665 16.7584 6.64998 16.5751L10.725 12.5001L6.62498 8.4001C6.44165 8.21676 6.35415 8.00426 6.36248 7.7626C6.37082 7.52093 6.46665 7.30843 6.64998 7.1251C6.83332 6.94176 7.04582 6.8501 7.28748 6.8501C7.52915 6.8501 7.74165 6.94176 7.92498 7.1251L12 11.2251L16.1 7.1251C16.2833 6.94176 16.4958 6.8501 16.7375 6.8501C16.9791 6.8501 17.1916 6.94176 17.375 7.1251C17.5583 7.30843 17.65 7.52093 17.65 7.7626C17.65 8.00426 17.5583 8.21676 17.375 8.4001L13.275 12.5001L17.375 16.6001C17.5583 16.7834 17.65 16.9918 17.65 17.2251C17.65 17.4584 17.5583 17.6668 17.375 17.8501C17.1916 18.0334 16.9791 18.1251 16.7375 18.1251C16.4958 18.1251 16.2833 18.0334 16.1 17.8501L12 13.7751Z" fill="#AB2020"/>
</svg>
