<svg width="24" height="25" viewBox="0 0 24 25" fill="none" xmlns="http://www.w3.org/2000/svg">
<path d="M4.50661 20.9001C4.25194 20.9001 4.03711 20.8139 3.86211 20.6416C3.68711 20.4693 3.59961 20.2558 3.59961 20.0011L3.59961 14.6071C3.59961 14.3524 3.68536 14.1376 3.85686 13.9626C4.02836 13.7876 4.24086 13.7001 4.49436 13.7001C4.74786 13.7001 4.96211 13.786 5.13711 13.9578C5.31211 14.1297 5.39961 14.3427 5.39961 14.5968V17.8251L17.3246 5.9001H14.0964C13.8424 5.9001 13.6294 5.81435 13.4574 5.64285C13.2855 5.47135 13.1996 5.25885 13.1996 5.00535C13.1996 4.75185 13.2858 4.5376 13.4581 4.3626C13.6304 4.1876 13.8439 4.1001 14.0986 4.1001L19.4926 4.1001C19.7473 4.1001 19.9621 4.18626 20.1371 4.3586C20.3121 4.53093 20.3996 4.74443 20.3996 4.9991V10.3931C20.3996 10.6478 20.3139 10.8626 20.1424 11.0376C19.9709 11.2126 19.7584 11.3001 19.5049 11.3001C19.2514 11.3001 19.0371 11.2142 18.8621 11.0423C18.6871 10.8703 18.5996 10.6573 18.5996 10.4033V7.1751L6.67461 19.1001H9.90286C10.157 19.1001 10.37 19.1858 10.5419 19.3573C10.7137 19.5288 10.7996 19.7413 10.7996 19.9948C10.7996 20.2483 10.7134 20.4626 10.5411 20.6376C10.3688 20.8126 10.1553 20.9001 9.90061 20.9001H4.50661Z" fill="white"/>
</svg>
