<svg width="24" height="24" viewBox="0 0 24 24" fill="none" xmlns="http://www.w3.org/2000/svg">
<path d="M6.59999 18.5998H8.99999L8.99999 13.4998C8.99999 13.2448 9.08624 13.0311 9.25874 12.8586C9.43124 12.6861 9.64499 12.5998 9.89999 12.5998L14.1 12.5998C14.355 12.5998 14.5687 12.6861 14.7412 12.8586C14.9137 13.0311 15 13.2448 15 13.4998V18.5998H17.4V9.8998L12 5.8498L6.59999 9.8998L6.59999 18.5998ZM4.79999 18.2998L4.79999 9.8998C4.79999 9.61897 4.86249 9.35297 4.98749 9.10181C5.11249 8.85047 5.29165 8.63314 5.52499 8.4498L10.925 4.3998C11.2583 4.16647 11.6167 4.0498 12 4.0498C12.3833 4.0498 12.7417 4.16647 13.075 4.3998L18.475 8.4498C18.7083 8.63314 18.8875 8.85047 19.0125 9.10181C19.1375 9.35297 19.2 9.61897 19.2 9.8998V18.2998C19.2 18.8773 18.9944 19.3716 18.5832 19.7828C18.1719 20.1941 17.6775 20.3998 17.1 20.3998L14.1 20.3998C13.845 20.3998 13.6312 20.3136 13.4587 20.1411C13.2862 19.9686 13.2 19.7548 13.2 19.4998V14.3998H10.8L10.8 19.4998C10.8 19.7548 10.7137 19.9686 10.5412 20.1411C10.3687 20.3136 10.155 20.3998 9.89999 20.3998H6.89999C6.32249 20.3998 5.82815 20.1941 5.41699 19.7828C5.00565 19.3716 4.79999 18.8773 4.79999 18.2998Z" fill="#AB2020"/>
</svg>
