<svg width="24" height="25" viewBox="0 0 24 25" fill="none" xmlns="http://www.w3.org/2000/svg">
<path d="M6.5998 19.1H8.9998L8.9998 14C8.9998 13.745 9.08606 13.5313 9.25856 13.3588C9.43106 13.1863 9.6448 13.1 9.8998 13.1L14.0998 13.1C14.3548 13.1 14.5686 13.1863 14.7411 13.3588C14.9136 13.5313 14.9998 13.745 14.9998 14V19.1H17.3998V10.4L11.9998 6.35005L6.5998 10.4L6.5998 19.1ZM4.7998 18.8L4.7998 10.4C4.7998 10.1192 4.8623 9.85322 4.9873 9.60205C5.1123 9.35072 5.29147 9.13338 5.5248 8.95005L10.9248 4.90005C11.2581 4.66672 11.6165 4.55005 11.9998 4.55005C12.3831 4.55005 12.7415 4.66672 13.0748 4.90005L18.4748 8.95005C18.7081 9.13338 18.8873 9.35072 19.0123 9.60205C19.1373 9.85322 19.1998 10.1192 19.1998 10.4V18.8C19.1998 19.3775 18.9942 19.8719 18.5831 20.283C18.1717 20.6944 17.6773 20.9 17.0998 20.9L14.0998 20.9C13.8448 20.9 13.6311 20.8138 13.4586 20.6413C13.2861 20.4688 13.1998 20.255 13.1998 20V14.9H10.7998L10.7998 20C10.7998 20.255 10.7136 20.4688 10.5411 20.6413C10.3686 20.8138 10.1548 20.9 9.8998 20.9H6.8998C6.3223 20.9 5.82797 20.6944 5.4168 20.283C5.00547 19.8719 4.7998 19.3775 4.7998 18.8Z" fill="white"/>
</svg>
