<svg width="24" height="25" viewBox="0 0 24 25" fill="none" xmlns="http://www.w3.org/2000/svg">
<path d="M10.2004 15.575L4.30039 21.475C4.11706 21.6583 3.90872 21.7458 3.67539 21.7375C3.44206 21.7292 3.23372 21.6333 3.05039 21.45C2.86706 21.2667 2.77539 21.0542 2.77539 20.8125C2.77539 20.5708 2.86672 20.3587 3.04939 20.176L8.92539 14.3L5.69714 14.3C5.44314 14.3 5.23014 14.2142 5.05814 14.0427C4.88631 13.8712 4.80039 13.6587 4.80039 13.4052C4.80039 13.1517 4.88656 12.9375 5.05889 12.7625C5.23122 12.5875 5.44472 12.5 5.69939 12.5L11.0934 12.5C11.3481 12.5 11.5629 12.5862 11.7379 12.7585C11.9129 12.9308 12.0004 13.1443 12.0004 13.399V18.793C12.0004 19.0477 11.9146 19.2625 11.7431 19.4375C11.5716 19.6125 11.3591 19.7 11.1056 19.7C10.8521 19.7 10.6379 19.6141 10.4629 19.4422C10.2879 19.2702 10.2004 19.0572 10.2004 18.8032L10.2004 15.575ZM15.0754 10.7L18.3036 10.7C18.5578 10.7 18.7708 10.7857 18.9426 10.9572C19.1145 11.1287 19.2004 11.3412 19.2004 11.5947C19.2004 11.8482 19.1142 12.0625 18.9419 12.2375C18.7696 12.4125 18.5561 12.5 18.3014 12.5H12.9074C12.6527 12.5 12.4379 12.4138 12.2629 12.2415C12.0879 12.0692 12.0004 11.8557 12.0004 11.601L12.0004 6.207C12.0004 5.95233 12.0861 5.7375 12.2576 5.5625C12.4291 5.3875 12.6416 5.3 12.8951 5.3C13.1486 5.3 13.3629 5.38592 13.5379 5.55775C13.7129 5.72958 13.8004 5.94258 13.8004 6.19675L13.8004 9.425L19.7004 3.525C19.8837 3.34167 20.0962 3.25 20.3379 3.25C20.5796 3.25 20.7921 3.34167 20.9754 3.525C21.1587 3.70833 21.2504 3.92083 21.2504 4.1625C21.2504 4.40417 21.1587 4.61667 20.9754 4.8L15.0754 10.7Z" fill="white"/>
</svg>
