<svg width="24" height="25" viewBox="0 0 24 25" fill="none" xmlns="http://www.w3.org/2000/svg">
<path d="M3.30002 19.1C3.04502 19.1 2.83127 19.0143 2.65877 18.8428C2.48627 18.6713 2.40002 18.4588 2.40002 18.2053C2.40002 17.9518 2.48627 17.7375 2.65877 17.5625C2.83127 17.3875 3.04502 17.3 3.30002 17.3H11.1C11.355 17.3 11.5688 17.3858 11.7413 17.5573C11.9138 17.7288 12 17.9412 12 18.1947C12 18.4482 11.9138 18.6625 11.7413 18.8375C11.5688 19.0125 11.355 19.1 11.1 19.1H3.30002ZM3.30002 14.6C3.04502 14.6 2.83127 14.5143 2.65877 14.3428C2.48627 14.1713 2.40002 13.9588 2.40002 13.7053C2.40002 13.4518 2.48627 13.2375 2.65877 13.0625C2.83127 12.8875 3.04502 12.8 3.30002 12.8H6.30002C6.55502 12.8 6.76877 12.8858 6.94127 13.0573C7.11377 13.2288 7.20002 13.4413 7.20002 13.6948C7.20002 13.9483 7.11377 14.1625 6.94127 14.3375C6.76877 14.5125 6.55502 14.6 6.30002 14.6H3.30002ZM3.30002 10.1C3.04502 10.1 2.83127 10.0143 2.65877 9.84275C2.48627 9.67125 2.40002 9.45875 2.40002 9.20525C2.40002 8.95175 2.48627 8.7375 2.65877 8.5625C2.83127 8.3875 3.04502 8.3 3.30002 8.3H6.30002C6.55502 8.3 6.76877 8.38575 6.94127 8.55725C7.11377 8.72875 7.20002 8.94125 7.20002 9.19475C7.20002 9.44825 7.11377 9.6625 6.94127 9.8375C6.76877 10.0125 6.55502 10.1 6.30002 10.1H3.30002ZM13.8 16.1C12.472 16.1 11.34 15.6314 10.404 14.6943C9.46802 13.7573 9.00002 12.6239 9.00002 11.2943C9.00002 9.96475 9.46861 8.83333 10.4058 7.9C11.3428 6.96667 12.4761 6.5 13.8058 6.5C15.1353 6.5 16.2667 6.968 17.2 7.904C18.1334 8.84 18.6 9.972 18.6 11.3C18.6 11.8 18.5292 12.2792 18.3875 12.7375C18.2459 13.1958 18.0417 13.6167 17.775 14L20.971 17.196C21.157 17.382 21.25 17.5917 21.25 17.825C21.25 18.0583 21.1584 18.2667 20.975 18.45C20.7917 18.6333 20.5792 18.725 20.3375 18.725C20.0959 18.725 19.882 18.6327 19.696 18.448L16.5 15.275C16.1167 15.5417 15.6959 15.7458 15.2375 15.8875C14.7792 16.0292 14.3 16.1 13.8 16.1ZM13.8 14.3C14.6334 14.3 15.3417 14.0083 15.925 13.425C16.5084 12.8417 16.8 12.1333 16.8 11.3C16.8 10.4667 16.5084 9.75833 15.925 9.175C15.3417 8.59167 14.6334 8.3 13.8 8.3C12.9667 8.3 12.2584 8.59167 11.675 9.175C11.0917 9.75833 10.8 10.4667 10.8 11.3C10.8 12.1333 11.0917 12.8417 11.675 13.425C12.2584 14.0083 12.9667 14.3 13.8 14.3Z" fill="#AB2020"/>
</svg>
